<!DOCTYPE svg PUBLIC "-//W3C//DTD SVG 1.1//EN" "http://www.w3.org/Graphics/SVG/1.1/DTD/svg11.dtd">
<!-- Uploaded to: SVG Repo, www.svgrepo.com, Transformed by: SVG Repo Mixer Tools -->
<svg width="800px" height="800px" viewBox="-3.2 -3.2 38.40 38.40" id="target" xmlns="http://www.w3.org/2000/svg" fill="#000000" transform="rotate(180)">
<g id="SVGRepo_bgCarrier" stroke-width="0">
<path transform="translate(-3.2, -3.2), scale(2.4)" fill="#66abc2" d="M9.166.33a2.25 2.25 0 00-2.332 0l-5.25 3.182A2.25 2.25 0 00.5 5.436v5.128a2.25 2.25 0 001.084 1.924l5.25 3.182a2.25 2.25 0 002.332 0l5.25-3.182a2.25 2.25 0 001.084-1.924V5.436a2.25 2.25 0 00-1.084-1.924L9.166.33z" strokewidth="0"/>
</g>
<g id="SVGRepo_tracerCarrier" stroke-linecap="round" stroke-linejoin="round"/>
<g id="SVGRepo_iconCarrier">
<defs>
<style>.cls-1{fill:none;}.cls-2{fill:#f08484;}.cls-3{fill:#5c8fa3;}.cls-4{fill:#ffffff;}</style>
</defs>
<title/>
<rect class="cls-1" height="32" id="wrapper" width="32" x="0.05"/>
<circle class="cls-2" cx="16.05" cy="15.59" r="13.72"/>
<path class="cls-3" d="M16.05,30.31A14.72,14.72,0,1,1,30.77,15.59,14.74,14.74,0,0,1,16.05,30.31Zm0-27.43A12.72,12.72,0,1,0,28.77,15.59,12.73,12.73,0,0,0,16.05,2.88Z"/>
<circle class="cls-4" cx="16.05" cy="15.59" r="9.82"/>
<path class="cls-3" d="M16.05,26.41A10.82,10.82,0,1,1,26.87,15.59,10.83,10.83,0,0,1,16.05,26.41Zm0-19.64a8.82,8.82,0,1,0,8.82,8.82A8.83,8.83,0,0,0,16.05,6.77Z"/>
<path class="cls-3" d="M14.43,19.69a1,1,0,0,1-.61-.22l-2.88-2.25a1,1,0,1,1,1.23-1.57l2.18,1.7,5.49-5.56a1,1,0,0,1,1.42,1.41l-6.12,6.19A1,1,0,0,1,14.43,19.69Z"/>
</g>
</svg>